<svg xmlns="http://www.w3.org/2000/svg" version="1.1" xmlns:xlink="http://www.w3.org/1999/xlink" xmlns:svgjs="http://svgjs.dev/svgjs" width="1000" height="143" viewBox="0 0 1000 143"><g transform="matrix(1,0,0,1,-0.606056641884777,0.6058548818916876)"><svg viewBox="0 0 396 57" data-background-color="#d2d6dc" preserveAspectRatio="xMidYMid meet" height="143" width="1000" xmlns="http://www.w3.org/2000/svg" xmlns:xlink="http://www.w3.org/1999/xlink"><g id="tight-bounds" transform="matrix(1,0,0,1,0.23999856052603263,-0.2414919319008959)"><svg viewBox="0 0 395.52 57.48297446502587" height="57.48297446502587" width="395.52"><g><svg viewBox="0 0 395.52 57.48297446502587" height="57.48297446502587" width="395.52"><g><svg viewBox="0 0 463.31412798493034 67.33584695652173" height="57.48297446502587" width="395.52"><g><rect width="4.393933552194783" height="58.46817391304347" x="407.02244385391305" y="4.433836521739131" fill="#000000" opacity="1" stroke-width="0" stroke="transparent" fill-opacity="1" class="rect-o-0" data-fill-palette-color="primary" rx="1%" id="o-0" data-palette-color="#697895"></rect></g><g transform="matrix(1,0,0,1,0,9.306184347826086)"><svg viewBox="0 0 395.52 48.72347826086956" height="48.72347826086956" width="395.52"><g><svg viewBox="0 0 395.52 48.72347826086956" height="48.72347826086956" width="395.52"><g><svg viewBox="0 0 395.52 48.72347826086956" height="48.72347826086956" width="395.52"><g transform="matrix(1,0,0,1,0,0)"><svg width="395.52" viewBox="2.880000114440918 -36.040000915527344 296.4599914550781 36.53000259399414" height="48.72347826086956" data-palette-color="#697895"><g class="undefined-text-0" data-fill-palette-color="primary" id="text-0"><path d="M31.47-18.87L31.47-16.63Q31.47-11.4 29.71-7.51 27.95-3.61 24.73-1.56 21.51 0.49 17.21 0.49L17.21 0.49Q13.01 0.49 9.77-1.57 6.52-3.64 4.72-7.46 2.93-11.28 2.88-16.31L2.88-16.31 2.88-18.87Q2.88-24 4.66-27.93 6.45-31.86 9.7-33.95 12.96-36.04 17.16-36.04L17.16-36.04Q21.44-36.04 24.69-33.97 27.95-31.91 29.71-27.99 31.47-24.07 31.47-18.87L31.47-18.87ZM26.81-16.28L26.81-18.92Q26.81-25.24 24.27-28.63 21.73-32.01 17.16-32.01L17.16-32.01Q12.72-32.01 10.17-28.63 7.62-25.24 7.54-19.24L7.54-19.24 7.54-16.63Q7.54-10.5 10.12-6.99 12.7-3.49 17.21-3.49L17.21-3.49Q21.75-3.49 24.24-6.8 26.73-10.11 26.81-16.28L26.81-16.28ZM65.82-35.55L65.82 0 61.11 0 43.21-27.39 43.21 0 38.5 0 38.5-35.55 43.21-35.55 61.15-8.03 61.15-35.55 65.82-35.55ZM94.23-20.26L94.23-16.43 78.83-16.43 78.83-3.83 96.72-3.83 96.72 0 74.14 0 74.14-35.55 96.48-35.55 96.48-31.69 78.83-31.69 78.83-20.26 94.23-20.26ZM111.25-16.94L111.25-13.26 99.33-13.26 99.33-16.94 111.25-16.94ZM140.91-35.55L140.91-31.69 129.48-31.69 129.48 0 124.82 0 124.82-31.69 113.42-31.69 113.42-35.55 140.91-35.55ZM173.5-35.55L173.5 0 168.79 0 168.79-16.43 150.87-16.43 150.87 0 146.18 0 146.18-35.55 150.87-35.55 150.87-20.26 168.79-20.26 168.79-35.55 173.5-35.55ZM202.57 0L194.86-14.38 186.51-14.38 186.51 0 181.8 0 181.8-35.55 193.56-35.55Q199.57-35.55 202.8-32.81 206.04-30.08 206.04-24.85L206.04-24.85Q206.04-21.53 204.25-19.07 202.45-16.6 199.25-15.38L199.25-15.38 207.6-0.29 207.6 0 202.57 0ZM186.51-31.69L186.51-18.21 193.71-18.21Q197.2-18.21 199.26-20.02 201.33-21.83 201.33-24.85L201.33-24.85Q201.33-28.15 199.36-29.91 197.4-31.67 193.69-31.69L193.69-31.69 186.51-31.69ZM232.7-20.26L232.7-16.43 217.29-16.43 217.29-3.83 235.19-3.83 235.19 0 212.6 0 212.6-35.55 234.94-35.55 234.94-31.69 217.29-31.69 217.29-20.26 232.7-20.26ZM264.04 0L260.65-9.28 245.76-9.28 242.41 0 237.58 0 251.15-35.55 255.25-35.55 268.85 0 264.04 0ZM253.2-29.76L247.17-13.13 259.26-13.13 253.2-29.76ZM283.47 0L273.63 0 273.63-35.55 283.67-35.55Q288.31-35.55 291.87-33.5 295.44-31.45 297.38-27.66 299.32-23.88 299.34-18.97L299.34-18.97 299.34-16.7Q299.34-11.67 297.4-7.89 295.46-4.1 291.86-2.08 288.26-0.05 283.47 0L283.47 0ZM283.79-31.69L278.32-31.69 278.32-3.83 283.25-3.83Q288.67-3.83 291.69-7.2 294.7-10.57 294.7-16.8L294.7-16.8 294.7-18.87Q294.7-24.93 291.86-28.28 289.02-31.64 283.79-31.69L283.79-31.69Z" fill="#000000" data-fill-palette-color="primary"></path></g></svg></g></svg></g></svg></g></svg></g><g transform="matrix(1,0,0,1,422.9188212600209,0)"><svg viewBox="0 0 40.39530672490944 67.33584695652173" height="67.33584695652173" width="40.39530672490944"><g><svg xmlns="http://www.w3.org/2000/svg" xmlns:xlink="http://www.w3.org/1999/xlink" version="1.1" x="0" y="0" viewBox="24.779891967773438 11.298248291015625 40.438228607177734 67.40739440917969" enable-background="new 0 0 90 90" xml:space="preserve" height="67.33584695652173" width="40.39530672490944" class="icon-icon-0" data-fill-palette-color="accent" id="icon-0"><path d="M65.139 39.449c-0.062-0.105-1.645-4.723-4.146-4.654-0.267-0.652-0.901-1.842-2.208-2.586-1.197-0.684-2.658-0.824-4.34-0.424-0.311-0.598-0.983-1.574-2.195-2.029-1.332-0.496-2.912-0.221-4.669 0.814l-1.634 0.859-2.188-15.088c-0.029-0.15-0.73-3.703-3.008-4.752-1.054-0.486-2.242-0.363-3.525 0.371-0.045 0.025-0.085 0.057-0.12 0.092-0.091 0.09-0.877 0.934-0.908 2.83L36.177 35.67c-1.219 0.609-2.518 1.352-3.959 2.26-1.896 1.195-5.074 3.193-6.51 5.627-1.785 3.027-0.611 6.9 0.332 10.014 0.111 0.363 0.219 0.719 0.318 1.061 1.282 4.416 2.736 8.234 4.443 11.674 1.849 3.721 4.133 6.002 6.986 6.977 0.295 0.1 0.621-0.059 0.724-0.357 0.101-0.297-0.058-0.619-0.356-0.723-2.554-0.873-4.625-2.967-6.331-6.402-1.678-3.379-3.108-7.135-4.372-11.486-0.1-0.346-0.21-0.705-0.32-1.074-0.881-2.898-1.974-6.506-0.441-9.102 1.293-2.195 4.323-4.104 6.135-5.242 1.207-0.762 2.314-1.402 3.351-1.945l-0.009 8.537-2.289 2.059c-0.112 0.102-0.179 0.244-0.188 0.395-0.008 0.152 0.044 0.299 0.146 0.412 1.563 1.729 2.426 2.273 3.066 1.959 0.447-0.221 0.525-0.75 0.465-1.059l-0.064-1.639 0.002-1.705c0.023-0.064 0.035-0.131 0.035-0.199l0.014-9.705c0-0.072-0.014-0.143-0.037-0.207l0.02-20.904c0.02-1.217 0.414-1.824 0.537-1.988 0.923-0.506 1.707-0.598 2.4-0.281 1.743 0.803 2.359 3.902 2.361 3.908l3.285 22.66c0.043 0.307 0.313 0.521 0.633 0.48 0.307-0.037 0.529-0.311 0.498-0.621l-0.667-6.564 1.749-0.922c1.465-0.859 2.713-1.109 3.706-0.744 0.856 0.316 1.343 1.027 1.575 1.463-0.105 0.113-0.17 0.266-0.156 0.432l0.504 6.055c0.025 0.313 0.295 0.543 0.605 0.523 0.004 0 0.006-0.002 0.008-0.002 0.316-0.025 0.547-0.301 0.522-0.615l-0.474-5.701c1.51-0.412 2.783-0.346 3.784 0.219 1.413 0.799 1.835 2.336 1.841 2.352 0.031 0.115 0.098 0.205 0.182 0.279l-0.227 4.447c-0.018 0.314 0.225 0.584 0.538 0.6 0.023 0.002 0.046 0.002 0.069 0 0.283-0.02 0.515-0.25 0.529-0.541l0.225-4.379c1.357 0.135 2.416 3.533 2.699 3.941l-2.303 24.055c-0.232 6.438-3.609 8.129-3.749 8.195-0.041 0.021-0.08 0.045-0.116 0.074-2.545 2.043-3.01 5.691-3.028 5.846-0.038 0.313 0.185 0.596 0.497 0.633 0.035 0.004 0.07 0.008 0.107 0.004 0.268-0.02 0.493-0.225 0.527-0.5 0.004-0.033 0.428-3.299 2.564-5.057 0.566-0.297 4.093-2.408 4.334-9.129l2.318-24.225C65.228 39.67 65.2 39.551 65.139 39.449zM36.22 49.066c-0.23-0.166-0.595-0.477-1.148-1.061l1.093-0.984L36.22 49.066z" fill="#000000" data-fill-palette-color="accent"></path></svg></g></svg></g></svg></g></svg></g><defs><mask id="b4cb1b17-cd7a-4196-8a0f-2bdf9026fd60"><rect width="640" height="400" fill="white"></rect><rect width="348.05760000000004" height="55.7548036490226" fill="black" x="145.97119999999998" y="172.1225981754887" id="transform-me" transform="matrix(1,0,0,1,-122.24000000000001,-171.9574731830274)"></rect></mask></defs></svg><rect width="395.52" height="57.48297446502587" fill="none" stroke="none" visibility="hidden"></rect></g></svg></g></svg>